<?xml version="1.0" encoding="utf-8"?>
<!-- Generator: Adobe Illustrator 21.1.0, SVG Export Plug-In . SVG Version: 6.00 Build 0)  -->
<!DOCTYPE svg PUBLIC "-//W3C//DTD SVG 1.1//EN" "http://www.w3.org/Graphics/SVG/1.1/DTD/svg11.dtd">
<svg version="1.1" xmlns="http://www.w3.org/2000/svg" xmlns:xlink="http://www.w3.org/1999/xlink" x="0px" y="0px"
	 viewBox="0 0 841.9 595.3" style="enable-background:new 0 0 841.9 595.3;" xml:space="preserve">
<g id="base">
</g>
<g id="logomark">
	<g>
		<g>
			<path d="M299.8,302.8v-1.7h8.1c0.1,5,3.6,8.1,8.7,8.1c4.6,0,8.8-2.2,8.8-7.4c0-5.8-6.1-8.1-12.1-10.9
				c-6.1-2.9-12.2-6.3-12.2-14.3c0-9.2,7.6-14.8,16.5-14.8c7.3,0,15.4,5.1,15.4,13.2v1h-8.1c0.3-4.5-3.2-6.8-7.5-6.8
				c-4.3,0-8.2,1.7-8.2,6.7c0,3.9,3.1,5.9,6.1,7.3l4.7,2.2c7.2,3.5,13.5,7.2,13.5,16.3c0,9.4-8.1,14.9-16.9,14.9
				C308.5,316.7,299.8,311.6,299.8,302.8z"/>
			<path d="M354.9,279.7c2.5-2.6,6.5-3.9,10.2-3.9c10.2,0,13.7,7.3,13.7,16.4V316h-8.1v-24.4c0-5-1-8.4-6.8-8.4c-8,0-9.1,5-9.1,11.7
				V316h-8.1l0-54.1h8.1L354.9,279.7z"/>
			<path d="M416.6,312.2c-3.1,2.9-7.2,4.5-11.4,4.5c-7.6,0-14.2-4.2-14.2-12.2c0-10.2,9.6-13.3,18.3-13.3h7.3v-1.4
				c0-4.5-0.6-7.8-7.3-7.8c-4.2,0-8.4,0.6-8.4,4.5h-8.1c0.6-8.7,8.9-10.6,16.1-10.6c11.4,0,15.8,4,15.8,15.6V316h-8.1V312.2z
				 M408.2,297.3c-4.4,0-9.1,1.7-9.1,6.9c0,4.1,2.9,6.4,6.9,6.4c7.2,0,10.6-5.4,10.6-11.9v-1.3H408.2z"/>
			<path d="M447.2,280.9h0.2c2.5-3.3,7.6-5.1,12-5.1c9.4,0,15,6.2,15,15.4V316h-8.1v-25.4c0-5.2-2.4-8-7.8-8
				c-8,0-11.3,5.4-11.3,12.8V316h-8.1v-39.5h8.1V280.9z"/>
			<path d="M523.9,296c0,11.7-7,20.6-19.1,20.6c-12.1,0-19.1-9-19.1-20.6c0-12,7.2-20.2,19.1-20.2
				C516.6,275.8,523.9,284.1,523.9,296z M493.7,296.1c0,7.3,2.5,14.5,11,14.5s11-7.2,11-14.5s-2.9-14.3-11-14.3
				C496.6,281.9,493.7,288.8,493.7,296.1z"/>
			<path d="M545.5,280.8h0.2c2.4-3.2,6.1-5,10.2-5c6.9,0,12,5,12,12v1.6h-8.1v-1.2c0-3.1-1.5-6.3-5-6.3c-7.7,0-9.3,7.7-9.3,13.7V316
				h-8.1v-39.5h8.1V280.8z"/>
			<path d="M606.8,311.9c-2.8,2.8-7.2,4.8-11.3,4.8c-11.8,0-17.6-9.5-17.6-20.3c0-10.6,5.2-20.6,17-20.6c4.3,0,9.1,1.4,11.7,4.9h0.2
				l0-18.8h8.1l0,54.1h-8.1V311.9z M606.8,295.7c0-7-3-13.2-10.9-13.2c-7.2,0-9.8,7-9.8,13.2c0,6.6,2.6,14.2,10.4,14.2
				C604.1,309.9,606.8,302.3,606.8,295.7z"/>
		</g>
		<g>
			<circle cx="240.1" cy="252.6" r="8.2"/>
			<rect x="231.9" y="254.6" transform="matrix(0.7071 -0.7071 0.7071 0.7071 -132.9978 254.0131)" width="16.5" height="65.9"/>
			<path d="M257.6,278.3L257.6,278.3c4.5,0,8.2-3.7,8.2-8.2s-3.7-8.2-8.2-8.2h0c-4.5,0-8.2,3.7-8.2,8.2S253,278.3,257.6,278.3z"/>
			<rect x="214.4" y="296.8" transform="matrix(0.7071 -0.7071 0.7071 0.7071 -150.4693 246.7761)" width="16.5" height="16.5"/>
			<rect x="231.9" y="314.3" transform="matrix(0.7071 -0.7071 0.7071 0.7071 -157.7063 264.2477)" width="16.5" height="16.5"/>
		</g>
	</g>
</g>
</svg>
